<svg width="1920" height="1080" viewBox="0 0 1920 1080" fill="none" xmlns="http://www.w3.org/2000/svg">
<g opacity="0.3">
<path d="M-166.382 795.621C55.1475 588.839 307.98 420.238 584.022 295.217C784.178 204.563 1021.11 251.442 1170.69 411.307C1376.97 631.778 1544.9 883.643 1669.11 1158.83C1759.18 1358.38 1711.37 1595.14 1550.74 1745.07C1329.21 1951.85 1076.38 2120.45 800.34 2245.48C600.175 2336.13 363.251 2289.25 213.677 2129.39C7.39638 1908.92 -160.539 1657.06 -284.755 1381.86C-374.821 1182.32 -327.017 945.56 -166.382 795.621Z" stroke="white" stroke-width="0.5" stroke-miterlimit="10"/>
<path d="M1719.64 1176.55C1805.98 1380.89 1757.33 1622.63 1598.45 1778.45C1386.1 1986.74 1135.34 2153.99 861.43 2270.2C656.5 2357.15 414.582 2309.45 259.108 2151.36C51.2869 1940.05 -115.313 1690.25 -230.708 1417.17C-317.043 1212.83 -268.395 971.093 -109.522 815.268C102.842 606.978 353.596 439.728 627.497 323.509C832.425 236.569 1074.35 284.271 1229.82 442.356C1437.65 653.665 1604.24 903.473 1719.64 1176.55Z" stroke="white" stroke-width="0.5" stroke-miterlimit="10"/>
<path d="M1770.18 1194.26C1852.71 1403.5 1803.26 1649.97 1646.18 1811.82C1442.83 2021.34 1194.1 2187.29 922.536 2294.91C712.709 2378.08 466.068 2329.6 304.537 2173.32C95.4557 1971.03 -69.8399 1723.24 -176.656 1452.46C-259.193 1243.22 -209.741 996.76 -52.6675 834.91C150.687 625.38 399.414 459.435 670.974 351.807C880.806 268.641 1127.44 317.116 1288.97 473.394C1498.06 675.702 1663.36 923.491 1770.18 1194.26Z" stroke="white" stroke-width="0.5" stroke-miterlimit="10"/>
<path d="M1820.7 1211.99C1899.34 1426.27 1849.15 1677.16 1693.9 1845.19C1499.41 2055.69 1252.7 2220.35 983.646 2319.64C768.796 2398.93 517.72 2349.73 349.986 2195.3C139.893 2001.86 -24.1344 1756.06 -122.594 1487.77C-201.23 1273.5 -151.039 1022.6 4.20243 854.566C198.699 644.056 445.414 479.4 714.462 380.114C929.312 300.826 1180.4 350.025 1348.12 504.454C1558.21 697.897 1722.24 943.697 1820.7 1211.99Z" stroke="white" stroke-width="0.5" stroke-miterlimit="10"/>
<path d="M1871.23 1229.7C1945.86 1449.11 1894.97 1704.19 1741.62 1878.56C1555.84 2089.79 1311.14 2253.17 1044.75 2344.36C824.778 2419.66 569.497 2369.8 395.427 2217.27C184.569 2032.52 21.8079 1788.73 -68.5416 1523.07C-143.167 1303.66 -92.2892 1048.58 61.0671 874.218C246.85 662.978 491.554 499.602 757.936 408.415C977.915 333.112 1233.2 382.975 1407.27 535.504C1618.12 720.251 1780.88 964.05 1871.23 1229.7Z" stroke="white" stroke-width="0.5" stroke-miterlimit="10"/>
<path d="M1921.77 1247.41C1992.26 1472.06 1940.73 1731.09 1789.35 1911.93C1612.09 2123.68 1369.45 2285.76 1105.86 2369.09C880.665 2440.26 621.453 2389.77 440.871 2239.24C229.484 2063.01 68.0026 1821.25 -14.4802 1558.38C-84.9748 1333.73 -33.4462 1074.7 117.937 893.867C295.194 682.125 537.841 520.034 801.424 436.714C1026.62 365.535 1285.84 416.019 1466.42 566.556C1677.8 742.776 1839.28 984.536 1921.77 1247.41Z" stroke="white" stroke-width="0.5" stroke-miterlimit="10"/>
<path d="M1972.3 1265.13C2038.51 1495.11 1986.38 1757.84 1837.07 1945.3C1668.17 2157.35 1427.62 2318.11 1166.96 2393.8C936.448 2460.73 673.521 2409.66 486.303 2261.21C274.587 2093.34 114.416 1853.66 39.5689 1593.68C-26.6417 1363.7 25.4805 1100.97 174.799 913.512C343.699 701.468 584.239 540.697 844.893 465.017C1075.41 398.091 1338.35 449.152 1525.56 597.609C1737.27 765.477 1897.45 1005.15 1972.3 1265.13Z" stroke="white" stroke-width="0.5" stroke-miterlimit="10"/>
<path d="M2022.83 1282.84C2084.59 1518.23 2031.91 1784.45 1884.79 1978.66C1724.07 2190.82 1485.7 2350.23 1228.06 2418.51C992.157 2481.03 725.735 2429.42 531.74 2283.17C319.887 2123.47 161.059 1885.96 93.6169 1628.98C31.8493 1393.58 84.5268 1127.37 231.659 933.158C392.378 720.999 630.745 561.585 888.378 493.31C1124.29 430.784 1390.71 482.397 1584.71 628.649C1796.55 788.354 1955.39 1025.86 2022.83 1282.84Z" stroke="white" stroke-width="0.5" stroke-miterlimit="10"/>
<path d="M2073.36 1300.56C2130.53 1541.42 2077.31 1810.93 1932.5 2012.03C1779.78 2224.13 1543.7 2382.13 1289.17 2443.23C1047.79 2501.16 778.091 2449.04 577.173 2305.13C365.366 2153.42 207.933 1918.16 147.667 1664.27C90.5 1423.41 143.707 1153.91 288.522 952.803C441.247 740.708 677.332 582.698 931.858 521.605C1173.23 463.666 1442.93 515.786 1643.85 659.697C1855.66 811.414 2013.1 1046.67 2073.36 1300.56Z" stroke="white" stroke-width="0.5" stroke-miterlimit="10"/>
<path d="M2123.89 1318.28C2176.27 1564.7 2122.57 1837.28 1980.23 2045.41C1835.33 2257.3 1601.62 2413.82 1350.28 2467.95C1103.37 2521.13 830.588 2468.54 622.615 2327.11C410.987 2183.21 255.021 1950.33 201.72 1699.59C149.354 1453.17 203.051 1180.58 345.385 972.457C490.296 760.569 723.995 604.042 975.34 549.909C1222.25 496.732 1495.04 549.329 1703 690.751C1914.63 834.662 2070.6 1067.54 2123.89 1318.28Z" stroke="white" stroke-width="0.5" stroke-miterlimit="10"/>
<path d="M2174.37 1336.03C2221.75 1588.04 2167.59 1863.53 2027.88 2078.82C1890.61 2290.37 1659.44 2445.34 1411.32 2492.72C1158.84 2540.93 883.123 2487.88 667.987 2349.12C456.67 2212.83 302.261 1982.47 255.715 1734.93C208.326 1482.93 262.49 1207.43 402.188 992.142C539.46 780.598 770.642 625.628 1018.76 578.245C1271.23 530.038 1546.95 583.085 1762.09 721.84C1973.41 858.129 2127.82 1088.49 2174.37 1336.03Z" stroke="white" stroke-width="0.5" stroke-miterlimit="10"/>
<path d="M2224.9 1353.75C2267.07 1611.37 2212.47 1889.64 2075.6 2112.18C1945.79 2323.28 1717.28 2476.6 1472.42 2517.43C1214.33 2560.47 935.845 2506.99 713.428 2371.1C502.539 2242.25 349.764 2014.54 309.759 1770.23C267.582 1512.61 322.181 1234.34 459.043 1011.8C588.87 800.701 817.374 647.38 1062.23 606.548C1320.32 563.518 1598.8 616.998 1821.22 752.895C2032.13 881.735 2184.9 1109.44 2224.9 1353.75Z" stroke="white" stroke-width="0.5" stroke-miterlimit="10"/>
<path d="M2275.43 1371.46C2312.17 1634.73 2257.15 1915.63 2123.33 2145.55C2000.78 2356.1 1775.1 2507.68 1533.53 2542.14C1269.8 2579.77 988.674 2525.88 758.865 2393.06C548.491 2271.45 397.453 2046.57 363.82 1805.51C327.072 1542.24 382.098 1261.34 515.913 1031.42C638.461 820.871 864.139 669.299 1105.71 634.825C1369.44 597.199 1650.56 651.087 1880.37 783.916C2090.75 905.521 2241.78 1130.41 2275.43 1371.46Z" stroke="white" stroke-width="0.5" stroke-miterlimit="10"/>
<path d="M2325.97 1389.18C2357.03 1658.1 2301.61 1941.53 2171.06 2178.93C2055.61 2388.87 1832.94 2538.57 1594.64 2566.87C1325.28 2598.85 1041.63 2544.56 804.307 2415.03C594.525 2300.52 445.357 2078.64 417.882 1840.83C386.815 1571.91 442.237 1288.48 572.782 1051.09C688.237 841.15 910.91 691.439 1149.2 663.148C1418.57 631.162 1702.22 685.449 1939.54 814.979C2149.31 929.487 2298.49 1151.38 2325.97 1389.18Z" stroke="white" stroke-width="0.5" stroke-miterlimit="10"/>
<path d="M2376.49 1406.89C2401.63 1681.46 2345.81 1967.33 2218.78 2212.29C2110.24 2421.56 1890.77 2569.29 1655.74 2591.58C1380.74 2617.68 1094.65 2562.99 849.751 2437C640.605 2329.39 493.413 2110.69 471.935 1876.12C446.785 1601.56 502.613 1315.69 629.653 1070.73C738.177 861.457 957.663 713.731 1192.69 691.435C1467.69 665.347 1753.78 720.024 1998.68 846.023C2207.81 953.624 2355.01 1172.33 2376.49 1406.89Z" stroke="white" stroke-width="0.5" stroke-miterlimit="10"/>
<path d="M2427.02 1424.61C2445.97 1704.81 2389.76 1993.06 2266.5 2245.67C2164.72 2454.24 1948.64 2599.85 1716.85 2616.31C1436.22 2636.24 1147.76 2581.17 895.187 2458.98C686.725 2358.11 541.648 2142.8 525.986 1911.44C507.036 1631.25 563.253 1343 686.512 1090.39C788.291 881.819 1004.38 736.211 1236.17 719.746C1516.78 699.819 1805.26 754.886 2057.83 877.087C2266.28 977.942 2411.37 1193.26 2427.02 1424.61Z" stroke="white" stroke-width="0.5" stroke-miterlimit="10"/>
<path d="M2477.55 1442.33C2490.05 1728.11 2433.43 2018.71 2314.22 2279.03C2219.04 2486.88 2006.54 2630.24 1777.96 2641.03C1491.74 2654.54 1200.92 2599.06 940.627 2480.94C732.85 2386.64 590.022 2174.94 580.044 1946.74C567.54 1660.96 624.159 1370.36 743.378 1110.03C838.557 902.193 1051.05 758.835 1279.65 748.043C1565.85 734.546 1856.67 790.009 2116.97 908.133C2324.74 1002.41 2467.58 1214.14 2477.55 1442.33Z" stroke="white" stroke-width="0.5" stroke-miterlimit="10"/>
<path d="M2528.09 1460.05C2533.84 1751.37 2476.82 2044.31 2361.94 2312.4C2273.18 2519.53 2064.5 2660.49 1839.05 2665.74C1547.32 2672.55 1254.15 2616.67 986.056 2502.91C778.966 2415.03 638.532 2207.13 634.089 1982.04C628.337 1690.71 685.356 1397.77 800.232 1129.68C888.993 922.553 1097.67 781.587 1323.12 776.336C1614.86 769.544 1908.02 825.41 2176.11 939.179C2383.2 1027.05 2523.64 1234.96 2528.09 1460.05Z" stroke="white" stroke-width="0.5" stroke-miterlimit="10"/>
<path d="M2578.62 1477.76C2577.34 1774.55 2519.91 2069.86 2409.66 2345.77C2327.17 2552.2 2122.54 2690.62 1900.16 2690.46C1602.96 2690.26 1307.43 2633.98 1031.5 2524.87C825.087 2443.25 687.193 2239.39 688.147 2017.33C689.419 1720.55 746.856 1425.23 857.101 1149.33C939.586 942.897 1144.22 804.48 1366.6 804.639C1663.8 804.839 1959.33 861.121 2235.26 970.232C2441.68 1051.84 2579.57 1255.7 2578.62 1477.76Z" stroke="white" stroke-width="0.5" stroke-miterlimit="10"/>
<path d="M1410.08 832.937C1712.66 840.427 2010.61 897.145 2294.39 1001.27C2500.17 1076.79 2635.36 1276.37 2629.14 1495.48C2620.55 1797.66 2562.67 2095.39 2457.37 2379.14C2381.02 2584.9 2180.65 2720.61 1961.26 2715.18C1658.67 2707.69 1360.73 2650.97 1076.93 2546.84C871.149 2471.34 735.964 2271.75 742.192 2052.64C750.781 1750.47 808.657 1452.74 913.96 1168.97C990.315 963.223 1190.68 827.51 1410.08 832.937Z" stroke="white" stroke-width="0.5" stroke-miterlimit="10"/>
</g>
</svg>
