<svg xmlns="http://www.w3.org/2000/svg" fill="none" viewBox="0 0 42 42">
  <path stroke="#A50034" stroke-miterlimit="10" stroke-width="2"
    d="m27.466 22.035 1.02-1.782a.689.689 0 0 0-.25-.936L22.94 16.23a.677.677 0 0 0-.928.251l-1.02 1.782.25.937-.34.594-.928.252-2.038 3.564.249.937-.34.593-.928.252-1.02 1.782a.69.69 0 0 0 .25.937l5.296 3.086c.325.19.74.077.928-.251l1.02-1.781-.25-.938.34-.593.928-.251 2.038-3.565-.249-.936.34-.595.928-.252Z" />
  <path stroke="#A50034" stroke-miterlimit="10" stroke-width="2"
    d="m24.748 26.787.588.343c3.531 2.057 10.84 7.11 12.606 8.138a2.028 2.028 0 0 0 2.785-.754 2.068 2.068 0 0 0-.746-2.81c-1.766-1.029-9.755-4.893-13.285-6.95l-.589-.343m-3.44-3.589 3.53 2.058m-6.247 2.694 3.53 2.058m-8.406 9.816h-2.639a1.77 1.77 0 0 0-1.76 1.776V41H27.39v-1.776c0-.98-.788-1.776-1.76-1.776h-7.916" />
  <path stroke="#A50034" stroke-miterlimit="10" stroke-width="2"
    d="M12.435 37.448v-1.776c0-.98.789-1.775 1.76-1.775h9.676c.971 0 1.76.795 1.76 1.775v1.776" />
  <path stroke="#fff" stroke-linecap="round" stroke-linejoin="round" stroke-miterlimit="10" stroke-width="2"
    d="M5.965 10.112c.58.425 1.289.655 2.072.655h.88M2.76 16.095v3.036c0 .315.295.57.66.57h3.958c.364 0 .66-.255.66-.57v-2.148m17.905-6.871a3.466 3.466 0 0 1-2.072.655h-.88m2.951-5.357s-1.222-2.653-1.51-3.094c-.256-.393-.547-.646-1.302-.844C21.966 1.167 18.494 1 15.953 1c-2.54 0-6.012.167-7.177.472-.755.198-1.046.45-1.302.844-.287.441-1.51 3.094-1.51 3.094" />
  <path stroke="#fff" stroke-linecap="round" stroke-linejoin="round" stroke-miterlimit="10" stroke-width="2"
    d="M29.149 13.752v-2.984c0-.693-.078-1.035-.461-1.525a33.216 33.216 0 0 1-.653-.865l2.32-.939a.889.889 0 0 0 .553-.824V5.441a.884.884 0 0 0-.88-.888H26.51l-1.76 2.663H7.158l-1.76-2.663H1.88A.884.884 0 0 0 1 5.44v1.174c0 .364.219.69.552.824l2.32.939s-.27.373-.653.865c-.382.49-.46.833-.46 1.525v5.328c0 .49.394.888.88.888h13.195m4.398-3.552H10.675" />
</svg>
