<svg xmlns="http://www.w3.org/2000/svg" fill="none" viewBox="0 0 40 40">
  <path stroke="#A50034" stroke-width="2" d="m8 30.998.21-.227c.353-.386.686-.75 1.364-1.005 1.072-.404 2.097-.727 3-1.013.959-.304 1.787-.564 2.188-.78.785-.416 1.134-.924 1.134-1.643v-2.35a4.581 4.581 0 0 1-.433-.437c-.56-.655-1.018-2.385-1.316-3.802-.242-.225-.41-.561-.479-.968l-.284-1.742c-.098-.585.237-1.184.46-1.508a1.967 1.967 0 0 1-.112-.64c0-.302.048-1.67.273-2.32.156-.447.497-.876.77-1.22.102-.127.193-.24.253-.332.214-.331.766-.741 1.53-1.254.04-.129.093-.39.123-.67.025-.226.075-.7.522-.85.437-.144.763.175.944.358-.002-.08-.017-2.034.623-2.434l.258-.16.336.102c.373.143.468.51.6 1.019.063.245.159.616.25.75.224.331 1.11 1.115 1.402 1.372l.161.144c.068.039.568.254.898.398.789.34 1.154.506 1.339.654.015.012 1.358 1.097 1.635 1.673.09.188.716 1.642.7 2.22-.01.287-.091.825-.144 1.144.302.425.542 1.085.465 1.553l-.286 1.74a1.804 1.804 0 0 1-.303.767c-.298 1.478-.77 3.317-1.359 4.006a5.297 5.297 0 0 1-.622.605v2.182c0 .72.348 1.225 1.132 1.642.402.215 1.23.476 2.19.78.903.285 1.928.608 3 1.012.678.256 1.011.62 1.367 1.01L32 31"/>
  <path stroke="#fff" stroke-width="2" d="M1 20C1 9.525 9.525 1 20.002 1 30.477 1 39 9.524 39 20s-8.523 19-18.998 19C9.525 39 1 30.476 1 20Z"/>
</svg>
