<svg xmlns="http://www.w3.org/2000/svg" fill="none" viewBox="0 0 42 40">
  <path stroke="#fff" stroke-linejoin="round" stroke-miterlimit="10" stroke-width="2" d="M14.414 33.698c.342-.338.693-.883 1.789-.883h13.166c.994 0 6.462-5.417 7.157-6.187.668-.74 3.647-5.162 4.473-7.07-.519-.69-1.92-1.263-3.578-.883-1.582.363-2.513 1.484-3.579 3.535l-3.896 1.998"/>
  <path stroke="#fff" stroke-linecap="round" stroke-linejoin="round" stroke-miterlimit="10" stroke-width="2" d="M19.528 27.512h8.052c3.578 0 3.578-4.419 0-4.419h-5.368c-.745 0-2.144-1.767-3.325-1.767h-4.473c-1.21 0-2.71.968-3.579 1.767-1.34 1.325-3.64 3.474-3.64 3.474"/>
  <path stroke="#fff" stroke-linejoin="round" stroke-miterlimit="10" stroke-width="2" d="m10.84 39 4.474-4.419-9.84-9.72L1 29.279 10.84 39Zm-5.373-9.72 1.79 1.767"/>
  <path stroke="#A50034" stroke-linejoin="round" stroke-miterlimit="10" stroke-width="2" d="M32.947 9.837c0-.332-.031-.656-.076-.976l1.74-1.605-2.147-3.674-2.276.686a7.163 7.163 0 0 0-1.714-.982L27.937 1h-4.295l-.536 2.286c-.62.249-1.195.58-1.714.982l-2.276-.686-2.148 3.674 1.74 1.605c-.044.32-.076.644-.076.976 0 .333.032.657.076.977l-1.74 1.605 2.148 3.674 2.276-.686c.52.4 1.094.733 1.714.982l.536 2.286h4.295l.537-2.287a7.163 7.163 0 0 0 1.714-.981l2.276.686 2.147-3.674-1.74-1.605c.045-.32.076-.644.076-.977Z"/>
  <path stroke="#A50034" stroke-linejoin="round" stroke-miterlimit="10" stroke-width="2" d="M25.79 12.489c1.482 0 2.684-1.187 2.684-2.652 0-1.464-1.202-2.65-2.684-2.65-1.482 0-2.684 1.186-2.684 2.65 0 1.465 1.202 2.652 2.684 2.652Z"/>
</svg>
