<svg width="42" height="38" viewBox="0 0 42 38" fill="none" xmlns="http://www.w3.org/2000/svg">
<g clip-path="url(#clip0_4038_26)">
<path d="M35.7826 10V1H1V37H35.7826V31" stroke="#212322" stroke-width="2" stroke-miterlimit="10"/>
<path d="M1 7H35.7826" stroke="#212322" stroke-width="2" stroke-miterlimit="10"/>
<path d="M4 4H6" stroke="#212322" stroke-width="2" stroke-miterlimit="10"/>
<path d="M8 4H10" stroke="#212322" stroke-width="2" stroke-miterlimit="10"/>
<path d="M12 4H14" stroke="#212322" stroke-width="2" stroke-miterlimit="10"/>
<path d="M17.5212 12.0001H37.5212C39.4421 12.0001 40.9995 13.5492 40.9995 15.4601V25.1345C40.9995 27.0454 39.4421 28.5947 37.5212 28.5947H24.4778L19.8751 33.1734C19.3273 33.7184 18.3908 33.3326 18.3908 32.5618V28.5947H17.5212C15.6004 28.5947 14.043 27.0454 14.043 25.1345V15.4601C14.043 13.5492 15.6004 12.0001 17.5212 12.0001Z" stroke="white" stroke-width="2" stroke-miterlimit="10" stroke-linejoin="round"/>
<path d="M27.957 24.2856V25.9999" stroke="white" stroke-width="2" stroke-miterlimit="10"/>
<path d="M25.4219 18.2489C25.4219 16.7249 26.4471 15.7144 27.994 15.7144C29.5088 15.7144 30.5662 16.7566 30.5662 18.2489C30.5662 19.1232 29.921 20.0841 29.2793 20.5889C28.2271 21.4178 28.0314 22.1009 28.0314 23.4286" stroke="white" stroke-width="2" stroke-miterlimit="10"/>
</g>
<defs>
<clipPath id="clip0_4038_26">
<rect width="42" height="38" fill="white"/>
</clipPath>
</defs>
</svg>
