<svg xmlns="http://www.w3.org/2000/svg" fill="none" viewBox="0 0 42 38">
  <path stroke="#fff" stroke-miterlimit="10" stroke-width="2" d="M35.783 10V1H1v36h34.783v-6M1 7h34.783M4 4h2m2 0h2m2 0h2"/>
  <path stroke="#A50034" stroke-linejoin="round" stroke-miterlimit="10" stroke-width="2" d="M17.521 12h20A3.47 3.47 0 0 1 41 15.46v9.674a3.47 3.47 0 0 1-3.478 3.46H24.478l-4.603 4.58c-.548.544-1.484.159-1.484-.612v-3.967h-.87a3.47 3.47 0 0 1-3.478-3.46V15.46A3.47 3.47 0 0 1 17.521 12Z"/>
  <path stroke="#A50034" stroke-miterlimit="10" stroke-width="2" d="M27.957 24.286V26m-2.535-7.751c0-1.524 1.025-2.535 2.572-2.535 1.515 0 2.572 1.043 2.572 2.535 0 .874-.645 1.835-1.287 2.34-1.052.829-1.248 1.512-1.248 2.84"/>
</svg>
