<svg xmlns="http://www.w3.org/2000/svg" fill="none" viewBox="0 0 42 42">
  <path stroke="#fff" stroke-linecap="round" stroke-linejoin="round" stroke-miterlimit="10" stroke-width="2" d="M41 24.048v-6.096l-5.26-.762a15.11 15.11 0 0 0-1.624-3.919l3.181-4.258-4.31-4.31-4.258 3.182a15.157 15.157 0 0 0-3.92-1.623L24.049 1h-6.096l-.762 5.261a15.11 15.11 0 0 0-3.919 1.623L9.013 4.703l-4.31 4.31 3.182 4.258a15.156 15.156 0 0 0-1.623 3.918L1 17.953v6.096l5.26.762c.36 1.394.909 2.71 1.624 3.919l-3.181 4.258 4.31 4.31 4.257-3.182a15.158 15.158 0 0 0 3.92 1.623L17.95 41h6.096l.762-5.26a15.107 15.107 0 0 0 3.919-1.624l4.258 3.181 4.31-4.31-3.18-4.257a15.156 15.156 0 0 0 1.622-3.92L41 24.049Z"/>
  <path stroke="#A50034" stroke-linecap="round" stroke-linejoin="round" stroke-miterlimit="10" stroke-width="2" d="M21 26a5 5 0 1 0 0-10 5 5 0 0 0 0 10Z"/>
  <path stroke="#A50034" stroke-linecap="round" stroke-linejoin="round" stroke-miterlimit="10" stroke-width="2" d="M21 30a9 9 0 1 0 0-18 9 9 0 0 0 0 18Z"/>
</svg>
