<svg width="42" height="42" viewBox="0 0 42 42" fill="none" xmlns="http://www.w3.org/2000/svg">
<path d="M27.4657 22.0353L28.4852 20.2532C28.6726 19.9246 28.5618 19.5055 28.2363 19.3164L22.9399 16.2299C22.6154 16.0408 22.1993 16.1536 22.0119 16.4812L20.9924 18.2633L21.2414 19.2001L20.9018 19.7941L19.9738 20.0454L17.9357 23.6096L18.1846 24.5464L17.845 25.1404L16.917 25.3917L15.8975 27.1738C15.7102 27.5015 15.8219 27.9215 16.1465 28.1106L21.4428 31.1971C21.7683 31.3862 22.1835 31.2743 22.3708 30.9458L23.3903 29.1646L23.1414 28.2269L23.481 27.6338L24.409 27.3825L26.4471 23.8183L26.1982 22.8815L26.5377 22.2875L27.4657 22.0353Z" stroke="#A50034" stroke-width="2" stroke-miterlimit="10"/>
<path d="M24.748 26.7868L25.3365 27.1295C28.8674 29.1869 36.1764 34.2393 37.9418 35.2684C38.9165 35.8367 40.1638 35.4993 40.7268 34.5146C41.2898 33.5307 40.9555 32.2725 39.9809 31.7042C38.2154 30.6751 30.2265 26.8108 26.6956 24.7534L26.1071 24.4106" stroke="#A50034" stroke-width="2" stroke-miterlimit="10"/>
<path d="M22.667 20.8223L26.1979 22.8796" stroke="#A50034" stroke-width="2" stroke-miterlimit="10"/>
<path d="M19.9492 25.5737L23.4801 27.632" stroke="#A50034" stroke-width="2" stroke-miterlimit="10"/>
<path d="M15.074 37.4482H12.4351C11.4639 37.4482 10.6758 38.2438 10.6758 39.2241V41H27.389V39.2241C27.389 38.2438 26.6009 37.4482 25.6298 37.4482H17.7129" stroke="#A50034" stroke-width="2" stroke-miterlimit="10"/>
<path d="M12.4355 37.4483V35.6724C12.4355 34.6921 13.2237 33.8965 14.1948 33.8965H23.8709C24.8421 33.8965 25.6302 34.6921 25.6302 35.6724V37.4483" stroke="#A50034" stroke-width="2" stroke-miterlimit="10"/>

<path class="cust" d="M5.96484 10.1118C6.54541 10.5363 7.25351 10.7671 8.03728 10.7671H8.91692" stroke="white" stroke-width="2" stroke-miterlimit="10" stroke-linecap="round" stroke-linejoin="round"/>
<path class="cust" d="M2.75977 16.0952V19.1311C2.75977 19.4463 3.05533 19.702 3.4195 19.702H7.3779C7.74208 19.702 8.03764 19.4463 8.03764 19.1311V16.9832" stroke="white" stroke-width="2" stroke-miterlimit="10" stroke-linecap="round" stroke-linejoin="round"/>
<path  class="cust" d="M25.9433 10.1118C25.3627 10.5363 24.6546 10.7671 23.8709 10.7671H22.9912" stroke="white" stroke-width="2" stroke-miterlimit="10" stroke-linecap="round" stroke-linejoin="round"/>
<path  class="cust" d="M25.9416 5.40952C25.9416 5.40952 24.7198 2.75723 24.4321 2.31593C24.1762 1.92257 23.885 1.67041 23.1303 1.4724C21.9656 1.16694 18.4936 1 15.9532 1C13.4128 1 9.94085 1.16694 8.7762 1.4724C8.02147 1.67041 7.7303 1.92257 7.47432 2.31593C7.18667 2.75723 5.96484 5.40952 5.96484 5.40952" stroke="white" stroke-width="2" stroke-miterlimit="10" stroke-linecap="round" stroke-linejoin="round"/>
<path  class="cust" d="M29.1487 13.7518V10.7683C29.1487 10.0748 29.0713 9.73297 28.6877 9.24283C28.3051 8.7518 28.035 8.37798 28.035 8.37798L30.3555 7.43944C30.6889 7.30447 30.908 6.9777 30.908 6.61542V5.44068C30.908 4.95053 30.5139 4.55273 30.0283 4.55273H26.5097L24.7504 7.21656H16.8336H7.15752L5.39823 4.55273H1.87965C1.39408 4.55273 1 4.95053 1 5.44068V6.61542C1 6.97859 1.21902 7.30447 1.55241 7.43944L3.87291 8.37798C3.87291 8.37798 3.60288 8.75091 3.21935 9.24283C2.83671 9.73386 2.75929 10.0757 2.75929 10.7683V16.096C2.75929 16.5861 3.15337 16.9839 3.63894 16.9839H16.8336" stroke="white" stroke-width="2" stroke-miterlimit="10" stroke-linecap="round" stroke-linejoin="round"/>
<path  class="cust" d="M21.2315 13.4312H16.8333H10.6758" stroke="white" stroke-width="2" stroke-miterlimit="10" stroke-linecap="round" stroke-linejoin="round"/>
</svg>
