<svg width="42" height="40" viewBox="0 0 42 40" fill="none" xmlns="http://www.w3.org/2000/svg">
<path d="M14.4136 33.6985C14.7562 33.36 15.1069 32.8148 16.2029 32.8148C17.2979 32.8148 28.2736 32.8148 29.3686 32.8148C30.3626 32.8148 35.8307 27.3983 36.5259 26.6286C37.1942 25.888 40.1734 21.4667 40.9992 19.5587C40.4803 18.8685 39.0783 18.295 37.4205 18.675C35.8388 19.0382 34.9083 20.1596 33.8419 22.2099L29.9457 24.208" stroke="white" stroke-width="2" stroke-miterlimit="10" stroke-linejoin="round"/>
<path d="M19.5277 27.5123C19.5277 27.5123 26.6849 27.5123 27.5796 27.5123C31.1582 27.5123 31.1582 23.0936 27.5796 23.0936C26.6849 23.0936 24.6997 23.0936 22.2116 23.0936C21.4664 23.0936 20.068 21.3262 18.8871 21.3262C18.3619 21.3262 15.6225 21.3262 14.4138 21.3262C13.2042 21.3262 11.703 22.2947 10.8352 23.0936C9.49409 24.4184 7.19482 26.5676 7.19482 26.5676" stroke="white" stroke-width="2" stroke-miterlimit="10" stroke-linecap="round" stroke-linejoin="round"/>
<path d="M10.8408 39.0001L15.314 34.5815L5.47305 24.8607L0.999849 29.2793L10.8408 39.0001Z" stroke="white" stroke-width="2" stroke-miterlimit="10" stroke-linejoin="round"/>
<path d="M5.46729 29.2793L7.2566 31.0468" stroke="white" stroke-width="2" stroke-miterlimit="10" stroke-linejoin="round"/>
<path d="M32.9468 9.83736C32.9468 9.50508 32.9155 9.18074 32.8708 8.86083L34.6108 7.25598L32.4637 3.58228L30.1877 4.26806C29.6679 3.86684 29.0935 3.53456 28.4735 3.28623L27.9367 1H23.6424L23.1056 3.28623C22.4856 3.53456 21.9112 3.86684 21.3914 4.26806L19.1154 3.58228L16.9683 7.25598L18.7083 8.86083C18.6636 9.18074 18.6323 9.50508 18.6323 9.83736C18.6323 10.1696 18.6636 10.494 18.7083 10.8139L16.9683 12.4188L19.1154 16.0925L21.3914 15.4067C21.9112 15.8079 22.4856 16.1402 23.1056 16.3885L23.6424 18.6747H27.9367L28.4735 16.3885C29.0935 16.1402 29.6679 15.8079 30.1877 15.4067L32.4637 16.0925L34.6108 12.4188L32.8708 10.8139C32.9155 10.494 32.9468 10.1696 32.9468 9.83736Z" stroke="#A50034" stroke-width="2" stroke-miterlimit="10" stroke-linejoin="round"/>
<path d="M25.7899 12.4889C27.2722 12.4889 28.4739 11.302 28.4739 9.83773C28.4739 8.37351 27.2722 7.18652 25.7899 7.18652C24.3076 7.18652 23.106 8.37351 23.106 9.83773C23.106 11.302 24.3076 12.4889 25.7899 12.4889Z" stroke="#A50034" stroke-width="2" stroke-miterlimit="10" stroke-linejoin="round"/>
</svg>
