<svg width="1920" height="3544" viewBox="0 0 1920 3544" fill="none" xmlns="http://www.w3.org/2000/svg">
<g opacity="0.3">
<path d="M-165.821 558.416C118.766 418.68 423.095 326.677 737.424 285.354C965.342 255.388 1188.3 374.281 1289.5 579.759C1429.05 863.133 1520.68 1166.29 1561.45 1479.52C1591.02 1706.65 1471.25 1929.16 1264.89 2030.47C980.306 2170.21 675.977 2262.21 361.652 2303.55C133.725 2333.51 -89.2302 2214.61 -190.422 2009.14C-329.977 1725.77 -421.608 1422.61 -462.383 1109.38C-491.945 882.246 -372.179 659.738 -165.821 558.416Z" stroke="white" stroke-width="0.5" stroke-miterlimit="10"/>
<path d="M1606.66 1512.6C1631.04 1743.4 1508.91 1970.64 1302.52 2078.39C1026.66 2222.41 724.818 2313.7 415.304 2346.85C183.731 2371.66 -43.9757 2250.43 -151.61 2044.93C-295.49 1770.26 -386.41 1469.57 -418.998 1161.14C-443.368 930.341 -321.245 703.104 -114.863 595.355C161.006 451.327 462.844 360.044 772.356 326.883C1003.92 302.084 1231.64 423.32 1339.27 628.804C1483.16 903.476 1574.07 1204.17 1606.66 1512.6Z" stroke="white" stroke-width="0.5" stroke-miterlimit="10"/>
<path d="M1651.87 1545.68C1670.95 1780.24 1546.58 2011.96 1340.17 2126.29C1072.95 2274.29 773.542 2364.88 468.975 2390.15C233.65 2409.68 1.44917 2286.24 -112.8 2080.72C-260.68 1814.69 -350.904 1516.41 -375.603 1212.89C-394.682 978.334 -270.319 746.616 -63.9086 632.287C203.317 484.28 502.729 393.69 807.288 368.418C1042.62 348.887 1274.81 472.326 1389.06 677.842C1536.95 943.887 1627.18 1242.16 1651.87 1545.68Z" stroke="white" stroke-width="0.5" stroke-miterlimit="10"/>
<path d="M1697.08 1578.78C1710.72 1817.19 1584.27 2053.12 1377.81 2174.19C1119.17 2325.86 822.161 2415.78 522.643 2433.47C283.467 2447.59 47.0461 2322.08 -73.9756 2116.53C-225.555 1859.06 -315.116 1563.16 -332.203 1264.66C-345.848 1026.25 -219.398 790.315 -12.9432 669.238C245.712 517.56 542.718 427.649 842.229 409.965C1081.41 395.841 1317.84 521.356 1438.85 726.903C1590.43 984.377 1679.99 1280.28 1697.08 1578.78Z" stroke="white" stroke-width="0.5" stroke-miterlimit="10"/>
<path d="M1742.29 1611.86C1750.35 1854.18 1621.93 2094.1 1415.45 2222.09C1165.3 2377.14 870.699 2466.39 576.311 2476.77C333.216 2485.35 92.7877 2357.89 -35.1543 2152.32C-190.142 1903.32 -279.043 1609.81 -288.811 1316.42C-296.881 1074.08 -168.471 834.164 38.0169 706.184C288.17 551.128 582.775 461.887 877.156 451.502C1120.26 442.926 1360.69 570.38 1488.63 775.952C1643.62 1024.95 1732.51 1318.46 1742.29 1611.86Z" stroke="white" stroke-width="0.5" stroke-miterlimit="10"/>
<path d="M1787.49 1644.94C1789.83 1891.26 1659.57 2134.93 1453.1 2270C1211.33 2428.15 919.177 2516.72 629.981 2520.09C382.909 2522.95 138.736 2393.67 3.66858 2188.12C-154.436 1947.49 -242.675 1656.41 -245.41 1368.18C-247.756 1121.87 -117.496 878.192 88.9835 743.128C330.754 584.98 622.909 496.402 912.098 493.042C1159.17 490.179 1403.36 619.452 1538.42 825.006C1696.52 1065.63 1784.76 1356.71 1787.49 1644.94Z" stroke="white" stroke-width="0.5" stroke-miterlimit="10"/>
<path d="M1832.7 1678.02C1829.14 1928.37 1697.15 2175.58 1490.73 2317.9C1257.24 2478.89 967.586 2566.78 683.644 2563.39C432.54 2560.38 184.822 2429.4 42.4796 2223.91C-118.492 1991.55 -206.05 1702.95 -202.022 1419.94C-198.458 1169.59 -66.4802 922.388 139.945 780.065C373.44 619.077 663.084 531.18 947.022 534.58C1198.13 537.59 1445.86 668.569 1588.19 874.056C1749.16 1106.42 1836.73 1395.02 1832.7 1678.02Z" stroke="white" stroke-width="0.5" stroke-miterlimit="10"/>
<path d="M1877.91 1711.1C1868.25 1965.52 1734.66 2216.04 1528.38 2365.79C1303.04 2529.38 1015.98 2616.58 737.309 2606.68C482.146 2597.63 231.095 2465.04 81.2986 2259.7C-82.2917 2035.47 -169.163 1749.45 -158.632 1471.69C-148.975 1217.27 -15.3852 966.754 190.903 817.004C416.242 653.416 703.299 566.217 981.962 576.113C1237.13 585.167 1488.18 717.756 1637.98 923.096C1801.56 1147.33 1888.44 1433.35 1877.91 1711.1Z" stroke="white" stroke-width="0.5" stroke-miterlimit="10"/>
<path d="M1923.12 1744.19C1907.2 2002.69 1772.07 2256.34 1566.01 2413.69C1348.7 2579.64 1064.36 2666.12 790.981 2649.99C531.732 2634.68 277.553 2500.58 120.114 2295.48C-45.857 2079.27 -132.017 1795.93 -115.239 1523.44C-99.3171 1264.94 35.8045 1011.29 241.864 853.942C459.181 687.99 743.527 601.504 1016.9 617.646C1276.15 632.951 1530.33 767.044 1687.76 972.144C1853.74 1188.37 1939.91 1471.71 1923.12 1744.19Z" stroke="white" stroke-width="0.5" stroke-miterlimit="10"/>
<path d="M1968.33 1777.28C1945.93 2039.88 1809.37 2296.47 1603.66 2461.6C1394.23 2629.73 1112.72 2715.44 844.648 2693.3C581.309 2671.55 324.187 2536.04 158.93 2331.29C-9.23294 2122.95 -94.6452 1842.43 -71.8516 1575.21C-49.4353 1312.61 87.1137 1056.02 292.822 890.888C502.253 722.77 783.76 637.044 1051.83 659.188C1315.17 680.941 1572.3 816.451 1737.55 1021.2C1905.71 1229.55 1991.13 1510.06 1968.33 1777.28Z" stroke="white" stroke-width="0.5" stroke-miterlimit="10"/>
<path d="M2013.47 1810.38C1984.37 2077.06 1846.47 2336.43 1641.22 2509.52C1439.53 2679.62 1161.03 2764.56 898.233 2736.63C630.824 2708.21 370.908 2571.36 197.669 2367.11C27.5046 2166.48 -57.1139 1888.96 -28.5287 1626.99C0.565098 1360.32 138.466 1100.95 343.711 927.848C545.39 757.755 823.904 672.823 1086.7 700.745C1354.1 729.165 1614.02 866.013 1787.26 1070.27C1957.43 1270.9 2042.05 1548.42 2013.47 1810.38Z" stroke="white" stroke-width="0.5" stroke-miterlimit="10"/>
<path d="M2058.67 1843.46C2022.65 2114.19 1883.47 2376.2 1678.86 2557.42C1484.78 2729.33 1209.44 2813.43 951.903 2779.93C680.446 2744.63 417.886 2606.51 236.488 2402.91C64.4918 2209.86 -19.2978 1935.49 14.853 1678.76C50.873 1408.03 190.052 1146.02 394.66 964.796C588.75 792.888 864.082 708.793 1121.62 742.283C1393.07 777.591 1655.63 915.714 1837.03 1119.32C2009.04 1312.36 2092.83 1586.73 2058.67 1843.46Z" stroke="white" stroke-width="0.5" stroke-miterlimit="10"/>
<path d="M2103.88 1876.55C2060.71 2151.28 1920.31 2415.79 1716.5 2605.33C1529.87 2778.89 1257.89 2862.1 1005.58 2823.23C730.118 2780.81 465.037 2641.47 275.308 2438.69C101.628 2253.05 18.7169 1982.05 58.2621 1730.49C101.432 1455.77 241.837 1191.25 445.635 1001.71C632.273 828.144 904.244 744.941 1156.56 783.799C1432.02 826.229 1697.09 965.56 1886.83 1168.34C2060.51 1353.98 2143.41 1625 2103.88 1876.55Z" stroke="white" stroke-width="0.5" stroke-miterlimit="10"/>
<path d="M2149.1 1909.63C2098.52 2188.29 1956.95 2455.22 1754.15 2653.23C1574.8 2828.35 1306.41 2910.6 1059.24 2866.55C779.865 2816.75 512.375 2676.25 314.127 2474.49C138.883 2296.14 56.9355 2028.7 101.656 1782.27C152.23 1503.61 293.8 1236.69 496.595 1038.68C675.945 863.562 944.342 781.311 1191.5 825.363C1470.89 875.152 1738.38 1015.65 1936.62 1217.41C2111.86 1395.76 2193.81 1663.22 2149.1 1909.63Z" stroke="white" stroke-width="0.5" stroke-miterlimit="10"/>
<path d="M2194.3 1942.71C2136.08 2225.23 1993.36 2494.47 1791.79 2701.13C1619.57 2877.68 1354.97 2958.91 1112.91 2909.84C829.671 2852.45 559.864 2710.81 352.951 2510.29C176.249 2339.04 95.3115 2075.38 145.053 1834.02C203.265 1551.51 345.982 1282.27 547.567 1075.61C719.775 899.06 984.379 817.828 1226.44 866.888C1509.68 924.294 1779.5 1065.93 1986.4 1266.45C2163.09 1437.69 2244.04 1701.35 2194.3 1942.71Z" stroke="white" stroke-width="0.5" stroke-miterlimit="10"/>
<path d="M2239.51 1975.8C2173.38 2262.07 2029.55 2533.58 1829.43 2749.04C1664.19 2926.94 1403.63 3007.08 1166.58 2953.17C879.583 2887.88 607.513 2745.14 391.766 2546.09C213.699 2381.8 133.853 2122.17 188.441 1885.8C254.569 1599.53 398.399 1328.02 598.521 1112.57C763.763 934.667 1024.33 854.524 1261.38 908.439C1548.37 973.719 1820.44 1116.46 2036.19 1315.51C2214.25 1479.8 2294.1 1739.42 2239.51 1975.8Z" stroke="white" stroke-width="0.5" stroke-miterlimit="10"/>
<path d="M2284.72 2008.88C2210.43 2298.79 2065.49 2572.52 1867.07 2796.93C1708.65 2976.11 1452.37 3055.09 1220.25 2996.47C929.604 2923.06 655.304 2779.2 430.586 2581.88C251.211 2424.37 172.519 2169.04 231.839 1937.55C306.117 1647.66 451.062 1373.92 649.484 1149.5C807.898 970.332 1064.17 891.347 1296.31 949.973C1586.94 1023.39 1861.24 1167.24 2085.97 1364.56C2265.34 1522.05 2344.04 1777.4 2284.72 2008.88Z" stroke="white" stroke-width="0.5" stroke-miterlimit="10"/>
<path d="M2329.93 2041.97C2247.2 2335.38 2101.15 2611.32 1904.71 2844.84C1752.94 3025.24 1501.21 3102.99 1273.9 3039.76C979.773 2957.97 703.244 2812.99 469.395 2617.67C288.758 2466.8 211.308 2216.01 275.226 1989.31C357.948 1695.9 504.004 1419.95 700.437 1186.43C852.208 1006.03 1103.94 928.285 1331.24 991.502C1625.37 1073.31 1901.91 1218.28 2135.75 1413.6C2316.38 1564.47 2393.83 1815.27 2329.93 2041.97Z" stroke="white" stroke-width="0.5" stroke-miterlimit="10"/>
<path d="M2375.13 2075.05C2283.71 2371.79 2136.52 2649.99 1942.35 2892.73C1797.07 3074.35 1550.17 3150.78 1327.58 3083.07C1030.1 2992.61 751.331 2846.5 508.216 2653.46C326.361 2509.06 250.226 2263.09 318.625 2041.06C410.039 1744.33 557.234 1466.12 751.404 1223.38C896.68 1041.77 1143.59 965.342 1366.17 1033.04C1663.65 1123.51 1942.43 1269.62 2185.54 1462.66C2367.4 1607.05 2443.53 1853.02 2375.13 2075.05Z" stroke="white" stroke-width="0.5" stroke-miterlimit="10"/>
<path d="M1401.11 1074.58C1701.75 1173.98 1982.82 1321.25 2235.31 1511.7C2418.38 1649.79 2493.11 1890.66 2420.33 2108.13C2319.96 2408.05 2171.59 2688.54 1979.98 2940.64C1841.05 3123.44 1599.23 3198.45 1381.24 3126.38C1080.58 3026.98 799.523 2879.7 547.029 2689.26C363.945 2551.17 289.226 2310.29 362.008 2092.82C462.383 1792.92 610.752 1512.43 802.361 1260.32C941.293 1077.52 1183.1 1002.51 1401.11 1074.58Z" stroke="white" stroke-width="0.5" stroke-miterlimit="10"/>
</g>
</svg>
