<svg width="323" height="56" viewBox="0 0 323 56" fill="none" xmlns="http://www.w3.org/2000/svg">
<path d="M76.8213 5.15967H82.5473V16.0597H86.6349L95.0882 5.15967H101.632L91.5434 17.9652L102.449 32.9507H95.3596L86.9096 21.2336H82.5473V32.9507H76.8213V5.15967Z" fill="white"/>
<path d="M110.906 5.15967H123.172L130.805 32.9507H124.808L118.81 10.3368H115.265L109.268 32.9507H103.271L110.906 5.15967Z" fill="white"/>
<path d="M134.89 5.15959H140.616V16.3309H144.432C145.74 9.51962 151.247 4.61377 158.333 4.61377C166.237 4.61377 172.509 10.9348 172.509 19.0535C172.509 27.1754 166.24 33.4932 158.333 33.4932C151.247 33.4932 145.465 28.2671 144.432 21.508H140.616V32.9507H134.89V5.15959ZM158.333 28.3161C162.967 28.3161 166.508 24.7209 166.508 19.0535C166.508 13.3894 162.967 9.79416 158.333 9.79416C153.699 9.79416 150.158 13.3894 150.158 19.0535C150.158 24.7209 153.699 28.3161 158.333 28.3161Z" fill="white"/>
<path d="M177.152 5.15967H182.878V14.9714C182.878 18.2397 184.784 20.1452 188.329 20.1452C190.782 20.1452 192.472 19.7628 193.564 19.3281C194.218 19.1124 194.765 18.8379 195.144 18.511V5.15967H200.867V32.9507H195.144V23.4169C194.598 23.7993 193.999 24.1228 193.29 24.3974C192.037 24.8909 190.239 25.3223 187.783 25.3223C180.968 25.3223 177.148 21.567 177.148 15.5172L177.152 5.15967Z" fill="white"/>
<path d="M219.407 4.61377C222.239 4.61377 224.42 5.64985 225.891 6.68593C226.765 7.28731 227.526 7.99328 228.128 8.70252H228.4V5.15959H234.126V32.9507H228.4V29.1397H228.128C227.526 29.9536 226.765 30.6595 225.891 31.3165C224.42 32.4048 222.239 33.4932 219.407 33.4932C212.042 33.4932 206.316 27.7735 206.316 19.0535C206.316 10.3367 212.042 4.61377 219.407 4.61377ZM220.496 28.3161C225.129 28.3161 228.4 25.1065 228.4 19.0535C228.4 13.007 225.129 9.79416 220.496 9.79416C215.535 9.79416 212.317 13.007 212.317 19.0535C212.317 25.1065 215.535 28.3161 220.496 28.3161Z" fill="white"/>
<path d="M241.218 5.15967H255.116C260.57 5.15967 263.569 8.10121 263.569 11.971C263.569 14.589 262.48 16.0597 261.388 16.9324C260.734 17.4226 260.024 17.805 259.207 17.9685V18.1842C260.243 18.3509 261.116 18.73 261.934 19.2758C263.298 20.2008 264.658 21.8905 264.658 24.9988C264.658 29.4111 261.061 32.954 255.39 32.954H241.218V5.15967ZM254.573 16.0597C256.754 16.0597 257.846 15.0792 257.846 13.0626C257.846 11.3729 256.754 10.3368 254.573 10.3368H246.94V16.0597H254.573ZM255.116 27.7769C257.572 27.7769 258.935 26.414 258.935 24.234C258.935 22.3252 257.572 20.9656 255.116 20.9656H246.94V27.7769H255.116Z" fill="white"/>
<path d="M267.392 5.15967H291.653V10.3368H282.385V32.9507H276.659V10.3368H267.392V5.15967Z" fill="white"/>
<path d="M308.553 4.61377C316.673 4.61377 323.001 10.9348 323.001 19.0535C323.001 27.1754 316.673 33.4932 308.553 33.4932C300.427 33.4932 294.103 27.1754 294.103 19.0535C294.106 10.9348 300.427 4.61377 308.553 4.61377ZM308.553 28.3161C313.514 28.3161 317.003 24.7209 317.003 19.0535C317.003 13.3894 313.514 9.79416 308.553 9.79416C303.589 9.79416 300.1 13.3894 300.1 19.0535C300.103 24.7209 303.592 28.3161 308.553 28.3161Z" fill="white"/>
<path d="M54.7581 42.3179C54.7581 42.3373 54.7516 42.3664 54.7451 42.3891L54.7581 42.3179Z" fill="white"/>
<path d="M55.8768 23.3454L50.3797 25.1267L21.0859 34.6376C18.2998 35.543 15.3043 34.0167 14.3985 31.232L14.3135 30.9771L19.3593 29.3363L49.9644 19.4037L55.3633 17.6519C55.6021 19.5443 55.7721 21.4432 55.8768 23.3454Z" fill="white"/>
<path d="M55.9682 30.454C55.9093 32.4542 55.7785 34.448 55.579 36.4384C55.3926 38.2981 55.1441 40.1513 54.8334 41.9914V41.9979C54.8106 42.145 54.7811 42.2986 54.7582 42.4522C53.6202 48.6491 48.7412 53.5484 42.5476 54.7152C42.541 54.7152 42.5345 54.7152 42.528 54.7152C42.3416 54.7479 42.1584 54.7806 41.9753 54.8067C32.7241 56.3592 23.2767 56.3592 14.0256 54.8067C13.8424 54.7773 13.6593 54.7446 13.4762 54.7152H13.4566C7.26294 53.5484 2.38392 48.6524 1.24592 42.4522C1.21976 42.2986 1.19033 42.145 1.16743 41.9979V41.9914C-0.389145 32.719 -0.389145 23.2505 1.16743 13.9715C1.1936 13.8212 1.21976 13.6676 1.24592 13.5172C2.38719 7.29749 7.29892 2.3851 13.5285 1.24444C13.6789 1.21829 13.8294 1.19214 13.9831 1.16926C23.2604 -0.389755 32.7372 -0.389755 42.0178 1.16926C42.1715 1.19214 42.3219 1.21829 42.4724 1.24444C45.7948 1.85236 48.7445 3.53557 50.9453 5.91823C52.2435 7.3269 53.2834 8.97417 53.9832 10.7914L48.702 12.504L21.0825 21.4692C18.2963 22.3745 15.3042 20.8482 14.3984 18.0635L14.3133 17.8086L19.3591 16.1679L44.8236 7.9054C43.8164 7.27461 42.6915 6.82357 41.4881 6.60132L41.0957 6.53268C36.7824 5.80383 32.3742 5.43451 28.0021 5.43451C23.6299 5.43451 19.2185 5.80383 14.9052 6.53268L14.5848 6.58825C14.5651 6.59151 14.5128 6.60132 14.5128 6.60132C10.5854 7.33671 7.45915 10.4744 6.72992 14.4291L6.66451 14.8213C5.20604 23.5577 5.20604 32.4183 6.66451 41.1547L6.72011 41.4815C6.72338 41.5011 6.72992 41.5502 6.72992 41.5502C7.45915 45.4853 10.5723 48.6262 14.4834 49.3714C14.6044 49.391 14.7286 49.4106 14.8496 49.4302L14.9477 49.4531C19.248 50.1754 23.6397 50.5448 28.0021 50.5448C32.3644 50.5448 36.7529 50.1754 41.0597 49.4531L41.1578 49.4302C41.2788 49.4106 41.3998 49.391 41.5208 49.3714C45.4318 48.6262 48.5483 45.4886 49.2742 41.5502L49.3429 41.1547C49.4966 40.2167 49.6405 39.2786 49.7582 38.3341L28.3749 45.2794C25.5855 46.1847 22.59 44.6649 21.6875 41.877L21.6024 41.6188L26.6515 39.9846L50.3174 32.2974L55.9682 30.454Z" fill="white"/>
<path d="M76.3408 49.8225C76.3408 49.2735 76.4978 48.7963 76.8183 48.3943C77.1387 47.989 77.5769 47.6785 78.1394 47.4595C78.7051 47.2438 79.3559 47.1261 80.0949 47.1261C80.5266 47.1261 80.9746 47.1621 81.4422 47.2307C81.9066 47.2994 82.3252 47.4039 82.6849 47.5379V46.7928C82.6849 46.0443 82.4625 45.4527 82.0178 45.0082C81.5763 44.5703 80.9615 44.348 80.1767 44.348C79.6992 44.348 79.2316 44.4362 78.7705 44.616C78.3094 44.7892 77.8287 45.0474 77.3317 45.3873L76.8869 44.5703C77.469 44.1715 78.0347 43.8741 78.5939 43.6747C79.1499 43.4753 79.7189 43.374 80.2977 43.374C81.3866 43.374 82.2532 43.6878 82.8909 44.3088C83.5253 44.9265 83.8458 45.7861 83.8458 46.8843V50.9665C83.8458 51.1234 83.8785 51.241 83.9504 51.3097C84.0191 51.3816 84.1237 51.4273 84.2741 51.4371V52.3588C84.1466 52.3686 84.042 52.3817 83.9504 52.3915C83.8588 52.4046 83.7902 52.4046 83.7444 52.3915C83.4599 52.3817 83.2441 52.2902 83.0969 52.1235C82.9497 51.9503 82.868 51.7672 82.8549 51.5744L82.8386 50.9273C82.4396 51.4371 81.9229 51.8326 81.2853 52.1137C80.6508 52.3882 80.0001 52.532 79.3395 52.532C78.7705 52.532 78.2571 52.4078 77.796 52.166C77.3382 51.9274 76.9785 51.594 76.7202 51.1822C76.4684 50.7802 76.3408 50.3193 76.3408 49.8225ZM82.2925 50.4991C82.4167 50.339 82.5148 50.1919 82.5835 50.0448C82.6522 49.8977 82.6849 49.767 82.6849 49.6559V48.3714C82.299 48.2243 81.8968 48.1132 81.4815 48.0315C81.0662 47.9498 80.6508 47.9138 80.229 47.9138C79.3984 47.9138 78.728 48.0805 78.2146 48.4041C77.7045 48.7309 77.4494 49.1754 77.4494 49.7376C77.4494 50.0644 77.5344 50.3716 77.7077 50.6593C77.8778 50.9436 78.1263 51.1789 78.4566 51.3685C78.7869 51.5581 79.1728 51.6496 79.6142 51.6496C80.1701 51.6496 80.6934 51.5417 81.1741 51.3227C81.658 51.1168 82.0308 50.839 82.2925 50.4991Z" fill="white"/>
<path d="M87.9111 55.9999C87.7149 55.9999 87.5187 55.9672 87.3225 55.9084C87.123 55.843 86.9203 55.7547 86.7143 55.6436L87.1394 54.8265C87.2669 54.8952 87.3846 54.9475 87.4893 54.9932C87.5972 55.0455 87.7117 55.0619 87.8392 55.0619C88.1335 55.0619 88.4147 54.918 88.6731 54.6206C88.938 54.3297 89.1865 53.9016 89.4252 53.3394L89.8699 52.2478L85.9131 43.5146H87.1394L90.3997 51.1333L93.4017 43.5146H94.5593L90.331 53.6989C90.1054 54.2284 89.8634 54.6631 89.6149 54.9965C89.3663 55.3364 89.0982 55.5881 88.8104 55.7482C88.5325 55.9149 88.2283 55.9999 87.9111 55.9999Z" fill="white"/>
<path d="M97.0215 52.3654V43.5146H98.1824V47.3027H99.5133L102.499 43.5146H103.827L100.432 47.8158L104.255 52.3654H102.891L99.5133 48.378H98.1824V52.3654H97.0215Z" fill="white"/>
<path d="M113.835 54.4278V52.3654H106.739V43.5146H107.897V51.3424H112.504V43.5146H113.662V51.3424H114.875V54.4278H113.835Z" fill="white"/>
<path d="M117.476 52.3654V43.5343H118.633V50.8064L124.042 43.5146H125.082V52.3654H123.924V45.2142L118.601 52.3654H117.476Z" fill="white"/>
<path d="M132.283 52.5379C131.635 52.5379 131.04 52.4137 130.501 52.1718C129.961 51.9267 129.493 51.5966 129.104 51.1717C128.709 50.7436 128.408 50.2631 128.192 49.7107C127.973 49.1649 127.868 48.5864 127.868 47.972C127.868 47.3444 127.973 46.7529 128.192 46.2038C128.404 45.6547 128.715 45.171 129.111 44.7493C129.51 44.3244 129.977 43.9911 130.52 43.7459C131.06 43.5008 131.648 43.3799 132.286 43.3799C132.924 43.3799 133.509 43.5008 134.042 43.7459C134.578 43.9878 135.046 44.3244 135.442 44.7493C135.841 45.171 136.145 45.6547 136.364 46.2038C136.583 46.7529 136.688 47.3444 136.688 47.972C136.688 48.5864 136.583 49.1649 136.364 49.7107C136.148 50.2631 135.844 50.7436 135.452 51.1717C135.056 51.5966 134.592 51.9234 134.052 52.1718C133.506 52.4137 132.921 52.5379 132.283 52.5379ZM129.042 47.9916C129.042 48.6485 129.186 49.2434 129.477 49.7827C129.768 50.3121 130.157 50.737 130.644 51.0475C131.135 51.358 131.675 51.5182 132.266 51.5182C132.858 51.5182 133.401 51.358 133.888 51.0442C134.376 50.7272 134.771 50.2958 135.066 49.75C135.36 49.2041 135.51 48.5995 135.51 47.9458C135.51 47.3019 135.363 46.7104 135.066 46.1678C134.768 45.6253 134.376 45.1971 133.888 44.8801C133.401 44.5598 132.858 44.4029 132.266 44.4029C131.675 44.4029 131.135 44.5696 130.644 44.8931C130.157 45.22 129.768 45.6514 129.477 46.1874C129.186 46.7267 129.042 47.3248 129.042 47.9916Z" fill="white"/>
<path d="M139.458 52.3654V43.5146H140.616V47.319H145.701V43.5146H146.865V52.3654H145.701V48.3584H140.616V52.3654H139.458Z" fill="white"/>
</svg>
